<svg width="1132" height="990" viewBox="0 0 1132 990" fill="none" xmlns="http://www.w3.org/2000/svg">
<path d="M707.421 0L778.132 70.7107L707.421 141.421L636.711 70.7107L707.421 0Z" fill="#F58232"/>
<path d="M848.843 141.421L954.909 247.487L813.487 388.909L707.421 282.843L848.843 141.421Z" fill="#F58232"/>
<path d="M919.553 212.132L990.264 282.843L601.355 671.751L530.645 601.041L919.553 212.132Z" fill="#F58232"/>
<path d="M1060.97 353.553L1131.69 424.264L601.355 954.594L530.645 883.883L1060.97 353.553Z" fill="#F58232"/>
<path d="M566 141.421L636.711 212.132L566 282.843L495.289 212.132L566 141.421Z" fill="#F58232"/>
<path d="M424.579 282.843L495.289 353.553L389.223 459.619L318.513 388.909L424.579 282.843Z" fill="#F58232"/>
<path d="M424.579 0L495.289 70.7107L424.579 141.421L353.868 70.7107L424.579 0Z" fill="#F58232"/>
<path d="M283.157 141.421L353.868 212.132L247.802 318.198L177.091 247.487L283.157 141.421Z" fill="#F58232"/>
<path d="M212.446 212.132L636.711 636.396L566 707.107L141.736 282.843L212.446 212.132Z" fill="#F58232"/>
<path d="M71.0251 353.553L636.711 919.239L566 989.949L0.314453 424.264L71.0251 353.553Z" fill="#F58232"/>
</svg>
