<svg width="1700" height="1591" viewBox="0 0 1700 1591" fill="none" xmlns="http://www.w3.org/2000/svg">
<path d="M991.421 0.421387L1062.13 71.1321L991.421 141.843L920.711 71.1321L991.421 0.421387Z" fill="#F58232"/>
<path d="M1132.84 141.843L1238.91 247.909L1097.49 389.33L991.421 283.264L1132.84 141.843Z" fill="#F58232"/>
<path d="M1203.55 212.553L1274.26 283.264L885.355 672.173L814.645 601.462L1203.55 212.553Z" fill="#F58232"/>
<path d="M1344.97 353.975L1415.69 424.685L885.355 955.016L814.645 884.305L1344.97 353.975Z" fill="#F58232"/>
<path d="M850 141.843L920.711 212.553L850 283.264L779.289 212.553L850 141.843Z" fill="#F58232"/>
<path d="M708.579 283.264L779.289 353.975L673.223 460.041L602.513 389.33L708.579 283.264Z" fill="#F58232"/>
<path d="M708.579 0.421387L779.289 71.1321L708.579 141.843L637.868 71.1321L708.579 0.421387Z" fill="#F58232"/>
<path d="M567.157 141.843L637.868 212.553L531.802 318.619L461.091 247.909L567.157 141.843Z" fill="#F58232"/>
<path d="M496.447 212.553L920.711 636.818L850 707.528L425.736 283.264L496.447 212.553Z" fill="#F58232"/>
<path d="M355.025 353.975L920.711 919.66L850 990.371L284.315 424.685L355.025 353.975Z" fill="#F58232"/>
<path d="M0 1240.37C0 1212.76 22.3858 1190.37 50 1190.37C77.6142 1190.37 100 1212.76 100 1240.37V1590.37H50C22.3858 1590.37 0 1567.99 0 1540.37V1240.37Z" fill="#F58232"/>
<path d="M400 1240.37C400 1212.76 422.386 1190.37 450 1190.37H500V1540.37C500 1567.99 477.614 1590.37 450 1590.37C422.386 1590.37 400 1567.99 400 1540.37V1240.37Z" fill="#F58232"/>
<path d="M450 1190.37H650V1290.37H450V1190.37Z" fill="#F58232"/>
<path d="M850 1190.37H1050C1077.61 1190.37 1100 1212.76 1100 1240.37C1100 1267.99 1077.61 1290.37 1050 1290.37H850V1190.37Z" fill="#F58232"/>
<path d="M850 1390.37H1050C1077.61 1390.37 1100 1412.76 1100 1440.37C1100 1467.99 1077.61 1490.37 1050 1490.37H850V1390.37Z" fill="#F58232"/>
<path d="M450 1390.37H650V1490.37H450V1390.37Z" fill="#F58232"/>
<path d="M600 1190.37H650C677.614 1190.37 700 1212.76 700 1240.37V1540.37C700 1567.99 677.614 1590.37 650 1590.37C622.386 1590.37 600 1567.99 600 1540.37V1190.37Z" fill="#F58232"/>
<path d="M800 1240.37C800 1212.76 822.386 1190.37 850 1190.37H900V1540.37C900 1567.99 877.614 1590.37 850 1590.37C822.386 1590.37 800 1567.99 800 1540.37V1240.37Z" fill="#F58232"/>
<path d="M1200 1240.37C1200 1212.76 1222.39 1190.37 1250 1190.37C1277.61 1190.37 1300 1212.76 1300 1240.37V1540.37C1300 1567.99 1277.61 1590.37 1250 1590.37C1222.39 1590.37 1200 1567.99 1200 1540.37V1240.37Z" fill="#F58232"/>
<path d="M1400 1240.37C1400 1212.76 1422.39 1190.37 1450 1190.37H1650C1677.61 1190.37 1700 1212.76 1700 1240.37C1700 1267.99 1677.61 1290.37 1650 1290.37H1450C1422.39 1290.37 1400 1267.99 1400 1240.37Z" fill="#F58232"/>
<path d="M1500 1190.37H1600V1540.37C1600 1567.99 1577.61 1590.37 1550 1590.37C1522.39 1590.37 1500 1567.99 1500 1540.37V1190.37Z" fill="#F58232"/>
<path d="M50 1490.37H250C277.614 1490.37 300 1512.76 300 1540.37C300 1567.99 277.614 1590.37 250 1590.37H50V1490.37Z" fill="#F58232"/>
</svg>
